TO get this file register here: http://pinoytorrents.net/index.php

The Alaska Aces is a professional basketball team in the 
Philippine Basketball Association since 1986 under the 
ownership of the Alaska Milk Corporation and the owner of 
12 PBA championships with the 2007 PBA Fiesta Conference as 
their latest. They are one of the most popular teams in the 
league and the Philippines.

The Talk 'N Text Tropang Texters is a professional basketball 
team in Philippine Basketball Association.

The team was first owned by Pepsi Philippines and was granted 
an expansion franchise prior to the 1990 PBA season. The Pepsi 
Bottlers also used the names 7-Up Bottlers and Pepsi Mega Hotshots 
in their campaigns, netting no championships.

In 1996, telecommunications company Pilipino Telephone Corporation 
bought the franchise. After the franchise was bought, it was then 
renamed to the Mobiline Cellulars and later the Mobiline Phone Pals 
which won the special 1998 PBA Centennial Cup. After Piltel 
became an MVNO in April 2000, the team was again renamed in 
2001, this time as the Talk 'N Text Phone Pals, after a prepaid 
cellular phone service. They have since won two titles and remains 
as one of the league's powerhouses. In 2008, the team changed their 
moniker from Phone Pals to Talk 'N Text Tropang Texters, and in the 
process winning the team's second championship via the 2008-09 PBA 
Philippine Cup. 

General
Complete name                    : E:\UPLOADS\PBA\PBA Alaska vs Talk N Text Game 7\Alaska vs Talk N Text 08042010.avi
Format                           : AVI
Format/Info                      : Audio Video Interleave
File size                        : 599 MiB
Duration                         : 1h 42mn
Overall bit rate                 : 817 Kbps
Writing application              : VirtualDubMod 1.5.4.1 (build 2178/release)
Writing library                  : VirtualDubMod build 2178/release

Video
ID                               : 0
Format                           : MPEG-4 Visual
Format profile                   : Simple@L0
Format settings, BVOP            : No
Format settings, QPel            : No
Format settings, GMC             : No warppoints
Format settings, Matrix          : Default (H.263)
Codec ID                         : XVID
Codec ID/Hint                    : XviD
Duration                         : 1h 42mn
Bit rate                         : 702 Kbps
Width                            : 512 pixels
Height                           : 384 pixels
Display aspect ratio             : 4:3
Frame rate                       : 29.970 fps
Color space                      : YUV
Chroma subsampling               : 4:2:0
Bit depth                        : 8 bits
Scan type                        : Progressive
Bits/(Pixel*Frame)               : 0.119
Stream size                      : 514 MiB (86%)
Writing library                  : XviD 1.2.1 (UTC 2008-12-04)

Audio
ID                               : 1
Format                           : MPEG Audio
Format version                   : Version 1
Format profile                   : Layer 3
Mode                             : Joint stereo
Mode extension                   : MS Stereo
Codec ID                         : 55
Codec ID/Hint                    : MP3
Duration                         : 1h 42mn
Bit rate mode                    : Variable
Bit rate                         : 101 Kbps
Nominal bit rate                 : 128 Kbps
Channel(s)                       : 2 channels
Sampling rate                    : 48.0 KHz
Stream size                      : 74.3 MiB (12%)
Alignment                        : Aligned on interleaves
Interleave, duration             : 24 ms (0.72 video frame)
Interleave, preload duration     : 495 ms
Writing library                  : LAME3.98r
Encoding settings                : -m j -V 4 -q 2 -lowpass 17 --abr 128


